<svg width="184" height="31" viewBox="0 0 184 31" fill="none" xmlns="http://www.w3.org/2000/svg">
<path d="M6.28 0.679998V24.84H18.12V30H0.6V0.679998H6.28ZM22.7216 2.48H28.5216V8H22.7216V2.48ZM28.4416 11.2V30H23.4016V15.68H21.1216L22.0016 11.2H28.4416ZM43.2859 15.44C42.3259 15.44 41.4726 15.6667 40.7259 16.12C39.9793 16.5733 39.3926 17.2 38.9659 18C38.5393 18.7733 38.3259 19.6533 38.3259 20.64C38.3259 21.6 38.5393 22.48 38.9659 23.28C39.3926 24.0533 39.9793 24.6667 40.7259 25.12C41.4726 25.5733 42.3259 25.8 43.2859 25.8C44.2459 25.8 45.0726 25.5867 45.7659 25.16C46.4859 24.7333 47.0326 24.1333 47.4059 23.36C47.8059 22.56 48.0059 21.6533 48.0059 20.64C48.0059 19.6 47.8059 18.6933 47.4059 17.92C47.0326 17.12 46.4859 16.5067 45.7659 16.08C45.0726 15.6533 44.2459 15.44 43.2859 15.44ZM43.4859 30.52C42.9793 30.52 42.4059 30.44 41.7659 30.28C41.1259 30.12 40.5126 29.9067 39.9259 29.64C39.3393 29.3467 38.8726 29 38.5259 28.6L38.5659 29.68V30H33.3259V0.679998H38.4059V11.12L38.3259 12.48C38.6193 12.08 39.0593 11.76 39.6459 11.52C40.2326 11.28 40.8726 11.0933 41.5659 10.96C42.2859 10.8 42.9259 10.72 43.4859 10.72C45.5926 10.72 47.3659 11.1733 48.8059 12.08C50.2726 12.9867 51.3793 14.2 52.1259 15.72C52.8993 17.2133 53.2859 18.8533 53.2859 20.64C53.2859 22.6133 52.8993 24.3467 52.1259 25.84C51.3526 27.3333 50.2326 28.4933 48.7659 29.32C47.3259 30.12 45.5659 30.52 43.4859 30.52ZM68.2731 11.24L67.1931 15.92C66.6598 15.7333 66.1531 15.6133 65.6731 15.56C65.1931 15.48 64.6865 15.44 64.1531 15.44C63.7798 15.44 63.4465 15.4667 63.1531 15.52C62.8598 15.5467 62.5665 15.6133 62.2731 15.72V30H57.1131V12.04C57.8865 11.64 58.8865 11.32 60.1131 11.08C61.3665 10.8133 62.6465 10.68 63.9531 10.68C64.3531 10.68 64.8065 10.6933 65.3131 10.72C65.8198 10.7467 66.3398 10.8 66.8731 10.88C67.4065 10.96 67.8731 11.08 68.2731 11.24ZM79.9563 25.8C80.8363 25.8 81.6363 25.6 82.3563 25.2C83.0763 24.7733 83.6496 24.1733 84.0763 23.4C84.5296 22.6267 84.7563 21.6933 84.7563 20.6C84.7563 19.5067 84.5296 18.5867 84.0763 17.84C83.6496 17.0667 83.0763 16.48 82.3563 16.08C81.6363 15.6533 80.8363 15.44 79.9563 15.44C79.1296 15.44 78.3429 15.64 77.5963 16.04C76.8496 16.44 76.2363 17.0267 75.7563 17.8C75.3029 18.5467 75.0763 19.48 75.0763 20.6C75.0763 21.72 75.3029 22.6667 75.7563 23.44C76.2363 24.2133 76.8496 24.8 77.5963 25.2C78.3429 25.6 79.1296 25.8 79.9563 25.8ZM79.6363 10.72C80.2496 10.72 80.8896 10.8133 81.5563 11C82.2229 11.16 82.8363 11.3867 83.3963 11.68C83.9563 11.9733 84.3696 12.3067 84.6363 12.68L84.5163 11.56V11.2H89.7963V30H84.6763V29.8L84.7963 28.6C84.5029 29 84.0763 29.3467 83.5163 29.64C82.9829 29.9333 82.3696 30.1467 81.6763 30.28C81.0096 30.44 80.3296 30.52 79.6363 30.52C77.6363 30.52 75.9029 30.08 74.4363 29.2C72.9696 28.32 71.8363 27.1333 71.0363 25.64C70.2363 24.1467 69.8363 22.4667 69.8363 20.6C69.8363 18.5467 70.2496 16.7867 71.0763 15.32C71.9296 13.8533 73.0896 12.72 74.5563 11.92C76.0496 11.12 77.7429 10.72 79.6363 10.72ZM116.383 0.679998V5.92H107.823V30H101.823V5.92H93.2634V0.679998H116.383ZM127.726 11.24L126.646 15.92C126.113 15.7333 125.606 15.6133 125.126 15.56C124.646 15.48 124.14 15.44 123.606 15.44C123.233 15.44 122.9 15.4667 122.606 15.52C122.313 15.5467 122.02 15.6133 121.726 15.72V30H116.566V12.04C117.34 11.64 118.34 11.32 119.566 11.08C120.82 10.8133 122.1 10.68 123.406 10.68C123.806 10.68 124.26 10.6933 124.766 10.72C125.273 10.7467 125.793 10.8 126.326 10.88C126.86 10.96 127.326 11.08 127.726 11.24ZM139.409 25.8C140.289 25.8 141.089 25.6 141.809 25.2C142.529 24.7733 143.103 24.1733 143.529 23.4C143.983 22.6267 144.209 21.6933 144.209 20.6C144.209 19.5067 143.983 18.5867 143.529 17.84C143.103 17.0667 142.529 16.48 141.809 16.08C141.089 15.6533 140.289 15.44 139.409 15.44C138.583 15.44 137.796 15.64 137.049 16.04C136.303 16.44 135.689 17.0267 135.209 17.8C134.756 18.5467 134.529 19.48 134.529 20.6C134.529 21.72 134.756 22.6667 135.209 23.44C135.689 24.2133 136.303 24.8 137.049 25.2C137.796 25.6 138.583 25.8 139.409 25.8ZM139.089 10.72C139.703 10.72 140.343 10.8133 141.009 11C141.676 11.16 142.289 11.3867 142.849 11.68C143.409 11.9733 143.823 12.3067 144.089 12.68L143.969 11.56V11.2H149.249V30H144.129V29.8L144.249 28.6C143.956 29 143.529 29.3467 142.969 29.64C142.436 29.9333 141.823 30.1467 141.129 30.28C140.463 30.44 139.783 30.52 139.089 30.52C137.089 30.52 135.356 30.08 133.889 29.2C132.423 28.32 131.289 27.1333 130.489 25.64C129.689 24.1467 129.289 22.4667 129.289 20.6C129.289 18.5467 129.703 16.7867 130.529 15.32C131.383 13.8533 132.543 12.72 134.009 11.92C135.503 11.12 137.196 10.72 139.089 10.72ZM154.597 2.48H160.397V8H154.597V2.48ZM160.317 11.2V30H155.277V15.68H152.997L153.877 11.2H160.317ZM170.281 30H165.121V12.32C165.628 12.0267 166.228 11.7733 166.921 11.56C167.614 11.3467 168.334 11.1733 169.081 11.04C169.854 10.9067 170.601 10.8133 171.321 10.76C172.041 10.7067 172.694 10.68 173.281 10.68C175.281 10.68 176.948 10.9067 178.281 11.36C179.641 11.8133 180.708 12.44 181.481 13.24C182.281 14.04 182.854 14.9467 183.201 15.96C183.574 16.9733 183.761 18.04 183.761 19.16C183.788 21.0533 183.801 22.8667 183.801 24.6C183.801 26.3067 183.788 28.1067 183.761 30H178.561C178.588 26.6667 178.588 23.3333 178.561 20C178.534 18.4267 178.134 17.2933 177.361 16.6C176.588 15.88 175.401 15.52 173.801 15.52C173.081 15.52 172.388 15.5867 171.721 15.72C171.081 15.8267 170.601 15.96 170.281 16.12V30Z" fill="black"/>
</svg>
